<svg class="diagram-root" style="background: #f5f6f6" xmlns="http://www.w3.org/2000/svg" xmlns:xlink="http://www.w3.org/1999/xlink"><style>.diagram-root { font-family: "Helvetica Neue", sans-serif; font-size: 12px; } .t { overflow: visible; } .t-bg { y: 40; fill: #fff;   } .th { fill: #005aa0;   } .tht { fill: #fff; font-size: 14px;  } .tf { fill: #323c46; overflow: visible; } .tf.pk { fill: #005aa0; font-weight: bold; } .tf.fk { font-weight: bold; } .ty { fill: #adb1b5; font-weight: normal; text-anchor: end; } .r { fill: transparent; stroke: #c3c3c3; stroke-width: 1; } .l { stroke: 1; } .i { fill: #c2c7ce; stroke: #c2c7ce; } .i.ix { fill: #afb3b6; stroke: #000; } .fa { fill: transparent; overflow: visible; } .fa .bg.hover { fill: #f7f7f7; } .c { cy: 12; r: 4; stroke: #d2d2dc; fill: #d2d2dc; } .hr { fill: transparent; stroke: #323c46; stroke-opacity: 0.035; stroke-width: 13; } .dc { stroke: #fa5a3c; fill: #fa5a3c; } .x { stroke: white; stroke-width: 1; } .hl .th { fill: #1b9bff; } .hl .tht {  } .fhl .bg { fill: #e7f4ff; } .fhls .bg {  } .r.hl { stroke: #1b9bff; } .dim { opacity: 0.25; }</style><g class="drawing-wrapper" transform="translate(-120, -84) scale(1,1)"><g class="rs"><path d="M 437 187 m -1, 0 a 1,1 0 1,0 2,0 a 1,1 0 1,0 -2,0 M 437 187 m -0.5, 0 a 0.5,0.5 0 1,0 1,0 a 0.5,0.5 0 1,0 -1,0  M437 187 L437 187 425 187 M 437 193 m -1, 0 a 1,1 0 1,0 2,0 a 1,1 0 1,0 -2,0 M 437 193 m -0.5, 0 a 0.5,0.5 0 1,0 1,0 a 0.5,0.5 0 1,0 -1,0  M437 193 L437 193 430 187 437 181 M 437 181 m -1, 0 a 1,1 0 1,0 2,0 a 1,1 0 1,0 -2,0 M 437 181 m -0.5, 0 a 0.5,0.5 0 1,0 1,0 a 0.5,0.5 0 1,0 -1,0  M425 187 Q 400 187, 375 186 T 325 185 M 313 185 m -1, 0 a 1,1 0 1,0 2,0 a 1,1 0 1,0 -2,0 M 313 185 m -0.5, 0 a 0.5,0.5 0 1,0 1,0 a 0.5,0.5 0 1,0 -1,0  M313 185 L313 185 325 185 M319 191 L319 191 319 179" id="h1397587031" class="r"></path><path d="M 437 212 m -1, 0 a 1,1 0 1,0 2,0 a 1,1 0 1,0 -2,0 M 437 212 m -0.5, 0 a 0.5,0.5 0 1,0 1,0 a 0.5,0.5 0 1,0 -1,0  M437 212 L437 212 425 212 M 437 218 m -1, 0 a 1,1 0 1,0 2,0 a 1,1 0 1,0 -2,0 M 437 218 m -0.5, 0 a 0.5,0.5 0 1,0 1,0 a 0.5,0.5 0 1,0 -1,0  M437 218 L437 218 430 212 437 206 M 437 206 m -1, 0 a 1,1 0 1,0 2,0 a 1,1 0 1,0 -2,0 M 437 206 m -0.5, 0 a 0.5,0.5 0 1,0 1,0 a 0.5,0.5 0 1,0 -1,0  M425 212 Q 390 212, 355 312.5 T 285 413 M 273 413 m -1, 0 a 1,1 0 1,0 2,0 a 1,1 0 1,0 -2,0 M 273 413 m -0.5, 0 a 0.5,0.5 0 1,0 1,0 a 0.5,0.5 0 1,0 -1,0  M273 413 L273 413 285 413 M279 419 L279 419 279 407" id="h1990908834" class="r"></path><path d="M 273 413 m -1, 0 a 1,1 0 1,0 2,0 a 1,1 0 1,0 -2,0 M 273 413 m -0.5, 0 a 0.5,0.5 0 1,0 1,0 a 0.5,0.5 0 1,0 -1,0  M273 413 L273 413 285 413 M 273 419 m -1, 0 a 1,1 0 1,0 2,0 a 1,1 0 1,0 -2,0 M 273 419 m -0.5, 0 a 0.5,0.5 0 1,0 1,0 a 0.5,0.5 0 1,0 -1,0  M273 419 L273 419 280 413 273 407 M 273 407 m -1, 0 a 1,1 0 1,0 2,0 a 1,1 0 1,0 -2,0 M 273 407 m -0.5, 0 a 0.5,0.5 0 1,0 1,0 a 0.5,0.5 0 1,0 -1,0  M285 413 Q 341.5 413, 398 415 T 511 417 M 523 417 m -1, 0 a 1,1 0 1,0 2,0 a 1,1 0 1,0 -2,0 M 523 417 m -0.5, 0 a 0.5,0.5 0 1,0 1,0 a 0.5,0.5 0 1,0 -1,0  M523 417 L523 417 511 417 M517 423 L517 423 517 411" id="h1578466457" class="r"></path><path d="M 708 171 m -1, 0 a 1,1 0 1,0 2,0 a 1,1 0 1,0 -2,0 M 708 171 m -0.5, 0 a 0.5,0.5 0 1,0 1,0 a 0.5,0.5 0 1,0 -1,0  M708 171 L708 171 696 171 M 708 177 m -1, 0 a 1,1 0 1,0 2,0 a 1,1 0 1,0 -2,0 M 708 177 m -0.5, 0 a 0.5,0.5 0 1,0 1,0 a 0.5,0.5 0 1,0 -1,0  M708 177 L708 177 701 171 708 165 M 708 165 m -1, 0 a 1,1 0 1,0 2,0 a 1,1 0 1,0 -2,0 M 708 165 m -0.5, 0 a 0.5,0.5 0 1,0 1,0 a 0.5,0.5 0 1,0 -1,0  M696 171 Q 665.25 171, 634.5 191.5 T 573 212 M 561 212 m -1, 0 a 1,1 0 1,0 2,0 a 1,1 0 1,0 -2,0 M 561 212 m -0.5, 0 a 0.5,0.5 0 1,0 1,0 a 0.5,0.5 0 1,0 -1,0  M561 212 L561 212 573 212 M567 218 L567 218 567 206" id="h1915938444" class="r"></path><path d="M 862 196 m -1, 0 a 1,1 0 1,0 2,0 a 1,1 0 1,0 -2,0 M 862 196 m -0.5, 0 a 0.5,0.5 0 1,0 1,0 a 0.5,0.5 0 1,0 -1,0  M862 196 L862 196 874 196 M 862 202 m -1, 0 a 1,1 0 1,0 2,0 a 1,1 0 1,0 -2,0 M 862 202 m -0.5, 0 a 0.5,0.5 0 1,0 1,0 a 0.5,0.5 0 1,0 -1,0  M862 202 L862 202 869 196 862 190 M 862 190 m -1, 0 a 1,1 0 1,0 2,0 a 1,1 0 1,0 -2,0 M 862 190 m -0.5, 0 a 0.5,0.5 0 1,0 1,0 a 0.5,0.5 0 1,0 -1,0  M874 196 Q 927 196, 980 198 T 1086 200 M 1098 200 m -1, 0 a 1,1 0 1,0 2,0 a 1,1 0 1,0 -2,0 M 1098 200 m -0.5, 0 a 0.5,0.5 0 1,0 1,0 a 0.5,0.5 0 1,0 -1,0  M1098 200 L1098 200 1086 200 M1092 206 L1092 206 1092 194" id="h1537058300" class="r"></path></g><g class="hrs"></g><g class="ts"><svg width="154" height="225" x="708" y="114" id="h1639608377" class="t"><rect height="40" width="154" class="th"></rect><text x="13" y="25" class="tht">employees</text><rect height="185" width="154" class="t-bg" y="40"></rect><text x="13" y="61" class="tf pk">emp_no<tspan x="141" class="ty">int</tspan></text><path d="M7,14A2,2 0 0,1 5,12A2,2 0 0,1 7,10A2,2 0 0,1 9,12A2,2 0 0,1 7,14M12.65,10C11.83,7.67 9.61,6 7, 6A6, 6 0 0, 0 1, 12A6, 6 0 0, 0 7, 18C9.61, 18 11.83, 16.33 12.65, 14H17V18H21V14H23V10H12.65Z" class="i pk" transform="translate(108, 48) scale(0.65)"></path><text x="13" y="86" class="tf fk">emp_title_id<tspan x="141" class="ty">varchar</tspan></text><text x="13" y="111" class="tf">birth_date<tspan x="141" class="ty">date</tspan></text><text x="13" y="136" class="tf">first_name<tspan x="141" class="ty">varchar</tspan></text><text x="13" y="161" class="tf">last_name<tspan x="141" class="ty">varchar</tspan></text><text x="13" y="186" class="tf">sex<tspan x="141" class="ty">char(1)</tspan></text><text x="13" y="211" class="tf">hire_date<tspan x="141" class="ty">date</tspan></text></svg><svg width="142" height="100" x="1098" y="143" id="h311790747" class="t"><rect height="40" width="142" class="th"></rect><text x="13" y="25" class="tht">titles</text><rect height="60" width="142" class="t-bg" y="40"></rect><text x="13" y="61" class="tf pk">title_id<tspan x="129" class="ty">varchar</tspan></text><path d="M7,14A2,2 0 0,1 5,12A2,2 0 0,1 7,10A2,2 0 0,1 9,12A2,2 0 0,1 7,14M12.65,10C11.83,7.67 9.61,6 7, 6A6, 6 0 0, 0 1, 12A6, 6 0 0, 0 7, 18C9.61, 18 11.83, 16.33 12.65, 14H17V18H21V14H23V10H12.65Z" class="i pk" transform="translate(69, 48) scale(0.65)"></path><text x="13" y="86" class="tf">title<tspan x="129" class="ty">varchar</tspan></text></svg><svg width="124" height="100" x="437" y="130" id="h1676682957" class="t"><rect height="40" width="124" class="th"></rect><text x="13" y="25" class="tht">dept_manager</text><rect height="60" width="124" class="t-bg" y="40"></rect><text x="13" y="61" class="tf pk">dept_no<tspan x="111" class="ty">int</tspan></text><path d="M7,14A2,2 0 0,1 5,12A2,2 0 0,1 7,10A2,2 0 0,1 9,12A2,2 0 0,1 7,14M12.65,10C11.83,7.67 9.61,6 7, 6A6, 6 0 0, 0 1, 12A6, 6 0 0, 0 7, 18C9.61, 18 11.83, 16.33 12.65, 14H17V18H21V14H23V10H12.65Z" class="i pk" transform="translate(78, 48) scale(0.65)"></path><text x="13" y="86" class="tf fk">emp_no<tspan x="111" class="ty">int</tspan></text></svg><svg width="131" height="100" x="142" y="356" id="h1090417462" class="t"><rect height="40" width="131" class="th"></rect><text x="13" y="25" class="tht">dept_emp</text><rect height="60" width="131" class="t-bg" y="40"></rect><text x="13" y="61" class="tf pk">emp_no<tspan x="118" class="ty">int</tspan></text><path d="M7,14A2,2 0 0,1 5,12A2,2 0 0,1 7,10A2,2 0 0,1 9,12A2,2 0 0,1 7,14M12.65,10C11.83,7.67 9.61,6 7, 6A6, 6 0 0, 0 1, 12A6, 6 0 0, 0 7, 18C9.61, 18 11.83, 16.33 12.65, 14H17V18H21V14H23V10H12.65Z" class="i pk" transform="translate(85, 48) scale(0.65)"></path><text x="13" y="86" class="tf">dept_no<tspan x="118" class="ty">varchar</tspan></text></svg><svg width="125" height="100" x="523" y="360" id="h2472833127" class="t"><rect height="40" width="125" class="th"></rect><text x="13" y="25" class="tht">salaries</text><rect height="60" width="125" class="t-bg" y="40"></rect><text x="13" y="61" class="tf pk">emp_no<tspan x="112" class="ty">int</tspan></text><path d="M7,14A2,2 0 0,1 5,12A2,2 0 0,1 7,10A2,2 0 0,1 9,12A2,2 0 0,1 7,14M12.65,10C11.83,7.67 9.61,6 7, 6A6, 6 0 0, 0 1, 12A6, 6 0 0, 0 7, 18C9.61, 18 11.83, 16.33 12.65, 14H17V18H21V14H23V10H12.65Z" class="i pk" transform="translate(79, 48) scale(0.65)"></path><text x="13" y="86" class="tf">salary<tspan x="112" class="ty">int</tspan></text></svg><svg width="149" height="100" x="164" y="128" id="h475896179" class="t"><rect height="40" width="149" class="th"></rect><text x="13" y="25" class="tht">departments</text><rect height="60" width="149" class="t-bg" y="40"></rect><text x="13" y="61" class="tf pk">dept_no<tspan x="136" class="ty">int</tspan></text><path d="M7,14A2,2 0 0,1 5,12A2,2 0 0,1 7,10A2,2 0 0,1 9,12A2,2 0 0,1 7,14M12.65,10C11.83,7.67 9.61,6 7, 6A6, 6 0 0, 0 1, 12A6, 6 0 0, 0 7, 18C9.61, 18 11.83, 16.33 12.65, 14H17V18H21V14H23V10H12.65Z" class="i pk" transform="translate(103, 48) scale(0.65)"></path><text x="13" y="86" class="tf">dept_name<tspan x="136" class="ty">varchar</tspan></text></svg></g></g><text class="qdbd-link" x="10" y="20">www.quickdatabasediagrams.com</text></svg>