<svg class="diagram-root" style="background: #f5f6f6" xmlns="http://www.w3.org/2000/svg" xmlns:xlink="http://www.w3.org/1999/xlink"><style>.diagram-root { font-family: "Helvetica Neue", sans-serif; font-size: 12px; } .t { overflow: visible; } .t-bg { y: 40; fill: #fff;   } .th { fill: #005aa0;   } .tht { fill: #fff; font-size: 14px;  } .tf { fill: #323c46; overflow: visible; } .tf.pk { fill: #005aa0; font-weight: bold; } .tf.fk { font-weight: bold; } .ty { fill: #adb1b5; font-weight: normal; text-anchor: end; } .r { fill: transparent; stroke: #c3c3c3; stroke-width: 1; } .l { stroke: 1; } .i { fill: #c2c7ce; stroke: #c2c7ce; } .i.ix { fill: #afb3b6; stroke: #000; } .fa { fill: transparent; overflow: visible; } .fa .bg.hover { fill: #f7f7f7; } .c { cy: 12; r: 4; stroke: #d2d2dc; fill: #d2d2dc; } .hr { fill: transparent; stroke: #323c46; stroke-opacity: 0.035; stroke-width: 13; } .dc { stroke: #fa5a3c; fill: #fa5a3c; } .x { stroke: white; stroke-width: 1; } .hl .th { fill: #1b9bff; } .hl .tht {  } .fhl .bg { fill: #e7f4ff; } .fhls .bg {  } .r.hl { stroke: #1b9bff; } .dim { opacity: 0.25; }</style><g class="drawing-wrapper" transform="translate(-138, 5) scale(1,1)"><g class="rs"><path d="M 160 394 m -1, 0 a 1,1 0 1,0 2,0 a 1,1 0 1,0 -2,0 M 160 394 m -0.5, 0 a 0.5,0.5 0 1,0 1,0 a 0.5,0.5 0 1,0 -1,0  M160 394 L160 394 148 394 M 160 400 m -1, 0 a 1,1 0 1,0 2,0 a 1,1 0 1,0 -2,0 M 160 400 m -0.5, 0 a 0.5,0.5 0 1,0 1,0 a 0.5,0.5 0 1,0 -1,0  M160 400 L160 400 153 394 160 388 M 160 388 m -1, 0 a 1,1 0 1,0 2,0 a 1,1 0 1,0 -2,0 M 160 388 m -0.5, 0 a 0.5,0.5 0 1,0 1,0 a 0.5,0.5 0 1,0 -1,0  M148 394 C 98 394, 78.19999999999999 163, 181 163 M 193 163 m -1, 0 a 1,1 0 1,0 2,0 a 1,1 0 1,0 -2,0 M 193 163 m -0.5, 0 a 0.5,0.5 0 1,0 1,0 a 0.5,0.5 0 1,0 -1,0  M193 163 L193 163 181 163 M187 169 L187 169 187 157" id="h1397587031" class="r"></path><path d="M 278 419 m -1, 0 a 1,1 0 1,0 2,0 a 1,1 0 1,0 -2,0 M 278 419 m -0.5, 0 a 0.5,0.5 0 1,0 1,0 a 0.5,0.5 0 1,0 -1,0  M278 419 L278 419 290 419 M 278 425 m -1, 0 a 1,1 0 1,0 2,0 a 1,1 0 1,0 -2,0 M 278 425 m -0.5, 0 a 0.5,0.5 0 1,0 1,0 a 0.5,0.5 0 1,0 -1,0  M278 425 L278 425 285 419 278 413 M 278 413 m -1, 0 a 1,1 0 1,0 2,0 a 1,1 0 1,0 -2,0 M 278 413 m -0.5, 0 a 0.5,0.5 0 1,0 1,0 a 0.5,0.5 0 1,0 -1,0  M290 419 Q 391.5 419, 493 295 T 696 171 M 708 171 m -1, 0 a 1,1 0 1,0 2,0 a 1,1 0 1,0 -2,0 M 708 171 m -0.5, 0 a 0.5,0.5 0 1,0 1,0 a 0.5,0.5 0 1,0 -1,0  M708 171 L708 171 696 171 M702 177 L702 177 702 165" id="h2286254435" class="r"></path><path d="M 571 82 m -1, 0 a 1,1 0 1,0 2,0 a 1,1 0 1,0 -2,0 M 571 82 m -0.5, 0 a 0.5,0.5 0 1,0 1,0 a 0.5,0.5 0 1,0 -1,0  M571 82 L571 82 583 82 M 571 88 m -1, 0 a 1,1 0 1,0 2,0 a 1,1 0 1,0 -2,0 M 571 88 m -0.5, 0 a 0.5,0.5 0 1,0 1,0 a 0.5,0.5 0 1,0 -1,0  M571 88 L571 88 578 82 571 76 M 571 76 m -1, 0 a 1,1 0 1,0 2,0 a 1,1 0 1,0 -2,0 M 571 76 m -0.5, 0 a 0.5,0.5 0 1,0 1,0 a 0.5,0.5 0 1,0 -1,0  M583 82 Q 611.25 82, 639.5 126.5 T 696 171 M 708 171 m -1, 0 a 1,1 0 1,0 2,0 a 1,1 0 1,0 -2,0 M 708 171 m -0.5, 0 a 0.5,0.5 0 1,0 1,0 a 0.5,0.5 0 1,0 -1,0  M708 171 L708 171 696 171 M702 177 L702 177 702 165" id="h1139284389" class="r"></path><path d="M 440 107 m -1, 0 a 1,1 0 1,0 2,0 a 1,1 0 1,0 -2,0 M 440 107 m -0.5, 0 a 0.5,0.5 0 1,0 1,0 a 0.5,0.5 0 1,0 -1,0  M440 107 L440 107 428 107 M 440 113 m -1, 0 a 1,1 0 1,0 2,0 a 1,1 0 1,0 -2,0 M 440 113 m -0.5, 0 a 0.5,0.5 0 1,0 1,0 a 0.5,0.5 0 1,0 -1,0  M440 113 L440 113 433 107 440 101 M 440 101 m -1, 0 a 1,1 0 1,0 2,0 a 1,1 0 1,0 -2,0 M 440 101 m -0.5, 0 a 0.5,0.5 0 1,0 1,0 a 0.5,0.5 0 1,0 -1,0  M428 107 Q 409.5 107, 391 135 T 354 163 M 342 163 m -1, 0 a 1,1 0 1,0 2,0 a 1,1 0 1,0 -2,0 M 342 163 m -0.5, 0 a 0.5,0.5 0 1,0 1,0 a 0.5,0.5 0 1,0 -1,0  M342 163 L342 163 354 163 M348 169 L348 169 348 157" id="h1607168654" class="r"></path><path d="M 862 196 m -1, 0 a 1,1 0 1,0 2,0 a 1,1 0 1,0 -2,0 M 862 196 m -0.5, 0 a 0.5,0.5 0 1,0 1,0 a 0.5,0.5 0 1,0 -1,0  M862 196 L862 196 874 196 M 862 202 m -1, 0 a 1,1 0 1,0 2,0 a 1,1 0 1,0 -2,0 M 862 202 m -0.5, 0 a 0.5,0.5 0 1,0 1,0 a 0.5,0.5 0 1,0 -1,0  M862 202 L862 202 869 196 862 190 M 862 190 m -1, 0 a 1,1 0 1,0 2,0 a 1,1 0 1,0 -2,0 M 862 190 m -0.5, 0 a 0.5,0.5 0 1,0 1,0 a 0.5,0.5 0 1,0 -1,0  M874 196 Q 892.5 196, 911 235 T 948 274 M 960 274 m -1, 0 a 1,1 0 1,0 2,0 a 1,1 0 1,0 -2,0 M 960 274 m -0.5, 0 a 0.5,0.5 0 1,0 1,0 a 0.5,0.5 0 1,0 -1,0  M960 274 L960 274 948 274 M954 280 L954 280 954 268" id="h1537058300" class="r"></path><path d="M 983 84 m -1, 0 a 1,1 0 1,0 2,0 a 1,1 0 1,0 -2,0 M 983 84 m -0.5, 0 a 0.5,0.5 0 1,0 1,0 a 0.5,0.5 0 1,0 -1,0  M983 84 L983 84 971 84 M 983 90 m -1, 0 a 1,1 0 1,0 2,0 a 1,1 0 1,0 -2,0 M 983 90 m -0.5, 0 a 0.5,0.5 0 1,0 1,0 a 0.5,0.5 0 1,0 -1,0  M983 90 L983 90 976 84 983 78 M 983 78 m -1, 0 a 1,1 0 1,0 2,0 a 1,1 0 1,0 -2,0 M 983 78 m -0.5, 0 a 0.5,0.5 0 1,0 1,0 a 0.5,0.5 0 1,0 -1,0  M971 84 Q 946.75 84, 922.5 127.5 T 874 171 M 862 171 m -1, 0 a 1,1 0 1,0 2,0 a 1,1 0 1,0 -2,0 M 862 171 m -0.5, 0 a 0.5,0.5 0 1,0 1,0 a 0.5,0.5 0 1,0 -1,0  M862 171 L862 171 874 171 M868 177 L868 177 868 165" id="h3177548053" class="r"></path></g><g class="hrs"></g><g class="ts"><svg width="125" height="100" x="983" y="27" id="h2472833127" class="t"><rect height="40" width="125" class="th"></rect><text x="13" y="25" class="tht">salaries</text><rect height="60" width="125" class="t-bg" y="40"></rect><text x="13" y="61" class="tf pk">emp_no<tspan x="112" class="ty">int</tspan></text><path d="M7,14A2,2 0 0,1 5,12A2,2 0 0,1 7,10A2,2 0 0,1 9,12A2,2 0 0,1 7,14M12.65,10C11.83,7.67 9.61,6 7, 6A6, 6 0 0, 0 1, 12A6, 6 0 0, 0 7, 18C9.61, 18 11.83, 16.33 12.65, 14H17V18H21V14H23V10H12.65Z" class="i pk" transform="translate(79, 48) scale(0.65)"></path><text x="13" y="86" class="tf">salary<tspan x="112" class="ty">int</tspan></text></svg><svg width="118" height="100" x="160" y="337" id="h1676682957" class="t"><rect height="40" width="118" class="th"></rect><text x="13" y="25" class="tht">dept_manager</text><rect height="60" width="118" class="t-bg" y="40"></rect><text x="13" y="61" class="tf fk">dept_no<tspan x="105" class="ty">int</tspan></text><text x="13" y="86" class="tf fk">emp_no<tspan x="105" class="ty">int</tspan></text></svg><svg width="142" height="100" x="960" y="217" id="h311790747" class="t"><rect height="40" width="142" class="th"></rect><text x="13" y="25" class="tht">titles</text><rect height="60" width="142" class="t-bg" y="40"></rect><text x="13" y="61" class="tf pk">title_id<tspan x="129" class="ty">varchar</tspan></text><path d="M7,14A2,2 0 0,1 5,12A2,2 0 0,1 7,10A2,2 0 0,1 9,12A2,2 0 0,1 7,14M12.65,10C11.83,7.67 9.61,6 7, 6A6, 6 0 0, 0 1, 12A6, 6 0 0, 0 7, 18C9.61, 18 11.83, 16.33 12.65, 14H17V18H21V14H23V10H12.65Z" class="i pk" transform="translate(69, 48) scale(0.65)"></path><text x="13" y="86" class="tf">title<tspan x="129" class="ty">varchar</tspan></text></svg><svg width="154" height="225" x="708" y="114" id="h1639608377" class="t"><rect height="40" width="154" class="th"></rect><text x="13" y="25" class="tht">employees</text><rect height="185" width="154" class="t-bg" y="40"></rect><text x="13" y="61" class="tf pk">emp_no<tspan x="141" class="ty">int</tspan></text><path d="M7,14A2,2 0 0,1 5,12A2,2 0 0,1 7,10A2,2 0 0,1 9,12A2,2 0 0,1 7,14M12.65,10C11.83,7.67 9.61,6 7, 6A6, 6 0 0, 0 1, 12A6, 6 0 0, 0 7, 18C9.61, 18 11.83, 16.33 12.65, 14H17V18H21V14H23V10H12.65Z" class="i pk" transform="translate(108, 48) scale(0.65)"></path><text x="13" y="86" class="tf fk">emp_title_id<tspan x="141" class="ty">varchar</tspan></text><text x="13" y="111" class="tf">birth_date<tspan x="141" class="ty">date</tspan></text><text x="13" y="136" class="tf">first_name<tspan x="141" class="ty">varchar</tspan></text><text x="13" y="161" class="tf">last_name<tspan x="141" class="ty">varchar</tspan></text><text x="13" y="186" class="tf">sex<tspan x="141" class="ty">char(1)</tspan></text><text x="13" y="211" class="tf">hire_date<tspan x="141" class="ty">date</tspan></text></svg><svg width="149" height="100" x="193" y="106" id="h475896179" class="t"><rect height="40" width="149" class="th"></rect><text x="13" y="25" class="tht">departments</text><rect height="60" width="149" class="t-bg" y="40"></rect><text x="13" y="61" class="tf pk">dept_no<tspan x="136" class="ty">int</tspan></text><path d="M7,14A2,2 0 0,1 5,12A2,2 0 0,1 7,10A2,2 0 0,1 9,12A2,2 0 0,1 7,14M12.65,10C11.83,7.67 9.61,6 7, 6A6, 6 0 0, 0 1, 12A6, 6 0 0, 0 7, 18C9.61, 18 11.83, 16.33 12.65, 14H17V18H21V14H23V10H12.65Z" class="i pk" transform="translate(103, 48) scale(0.65)"></path><text x="13" y="86" class="tf">dept_name<tspan x="136" class="ty">varchar</tspan></text></svg><svg width="131" height="100" x="440" y="25" id="h1090417462" class="t"><rect height="40" width="131" class="th"></rect><text x="13" y="25" class="tht">dept_emp</text><rect height="60" width="131" class="t-bg" y="40"></rect><text x="13" y="61" class="tf fk">emp_no<tspan x="118" class="ty">int</tspan></text><text x="13" y="86" class="tf fk">dept_no<tspan x="118" class="ty">varchar</tspan></text></svg></g></g><text class="qdbd-link" x="10" y="20">www.quickdatabasediagrams.com</text></svg>